<?xml version="1.0" encoding="UTF-8" standalone="no"?>
<!DOCTYPE svg PUBLIC "-//W3C//DTD SVG 1.1//EN" "http://www.w3.org/Graphics/SVG/1.1/DTD/svg11.dtd">
<svg width="100%" height="100%" viewBox="0 0 1024 1024" version="1.1" xmlns="http://www.w3.org/2000/svg" xmlns:xlink="http://www.w3.org/1999/xlink" xml:space="preserve" xmlns:serif="http://www.serif.com/" style="fill-rule:evenodd;clip-rule:evenodd;stroke-linejoin:round;stroke-miterlimit:2;">
    <g id="Layer2">
        <g id="Layer1" transform="matrix(1.10962,0,0,1.10962,-56.126,-56.1257)">
            <path d="M102.426,806.471C104.648,808.998 107.38,811.387 110.696,813.597C114.955,816.437 119.904,819.081 125.583,821.448C131.486,823.907 137.395,825.606 143.298,826.59C149.187,827.571 153.618,827.938 156.563,827.938C156.562,827.938 175.167,827.938 175.167,827.938C183.067,827.938 190.457,826.391 197.356,823.381C198.631,822.987 199.88,822.544 201.09,822.062C201.088,822.063 211.396,822.063 211.396,822.063L227.596,822.063C227.596,822.062 318.25,838.285 318.25,838.285C319.825,838.567 321.421,838.708 323.021,838.708L361.208,838.708C363.666,838.708 367.354,838.535 372.27,838.125C378.905,837.572 385.552,835.963 392.187,833.198C400.087,829.906 407.088,824.756 413.013,817.515C419.141,810.026 423.542,799.186 423.542,784.208C423.542,758.767 411.41,745.73 394.449,740.642C387.553,738.573 379.969,736.502 371.694,734.434C368.617,733.664 365.899,731.863 363.321,729.392C363.059,728.668 362.265,726.384 361.954,724.77C361.19,720.793 360.875,716.123 360.875,710.771C360.875,708.657 361.714,703.131 363.035,694.149C364.628,683.313 366.38,672.162 368.289,660.695C370.935,646.78 373.582,631.228 376.227,614.035C376.436,612.672 376.542,611.295 376.542,609.917L376.542,542.354C376.542,541.015 376.79,539.31 377.215,537.227C377.28,550.272 379.168,564.076 382.996,578.622C386.505,591.955 390.886,605.465 396.149,619.149C401.288,632.511 406.94,645.7 413.107,658.719C418.194,669.459 422.769,679.94 426.827,690.164C426.828,690.167 434.23,746.605 434.23,746.605C434.713,750.288 435.948,753.832 437.86,757.018C442.941,765.486 446.534,771.943 448.51,776.46C454.753,790.73 467.095,800.521 488.5,800.521C502.415,800.521 511.391,796.144 516.609,791.796C519.47,789.411 525.924,781.217 533.456,765.71C533.454,765.715 544.32,750.502 544.32,750.502C549.688,742.987 555.248,734.228 560.973,724.208C561.485,723.312 561.945,722.388 562.352,721.439C564.681,716.006 567.046,709.226 569.375,701.076C571.123,694.955 573.165,688.835 575.497,682.714C577.664,677.025 580.24,671.471 583.22,666.052C584.813,663.157 586.642,660.737 588.958,659C591.916,656.781 594.389,653.981 596.223,650.77C598.734,646.377 602.503,640.103 607.524,631.944C612.814,623.348 618.6,613.761 624.881,603.181C630.116,594.365 635.589,585.429 641.301,576.374C645.944,574.326 650.606,572.308 655.292,570.318L655.292,645.167C655.292,651.192 657.125,662.065 661.859,677.56C664.518,686.262 666.063,693.716 666.063,700C666.063,702.084 665.913,704.818 665.653,708.204C665.578,709.171 665.479,710.138 665.345,711.104L616.771,711.104C590.603,711.104 573.554,722.576 564.209,743.137C557.488,757.922 554.438,771.663 554.438,784.208C554.438,809.609 567.22,820.874 579.921,824.782C585.778,826.584 595.42,827.938 608.938,827.938C611.245,827.938 616.635,827.616 625.098,826.847C632.187,826.203 639.76,825.558 647.816,824.914C654.179,824.405 660.248,823.896 666.022,823.386C635.784,846.165 606.538,864.276 580.581,874.61C447.196,927.71 220.229,882.916 131.607,838.036C118.315,831.305 108.791,820.203 102.426,806.471ZM322.375,552.067L322.375,607.837C319.922,623.654 317.472,637.997 315.02,650.87C314.981,651.075 314.944,651.28 314.91,651.485C312.923,663.411 311.101,675.005 309.444,686.268C307.501,699.481 306.708,707.662 306.708,710.771C306.708,738.837 314.409,757.106 324.433,767.13C332.543,775.241 341.377,780.973 350.803,784.542L325.425,784.542C325.425,784.542 234.771,768.319 234.771,768.319C234.351,768.244 233.93,768.179 233.507,768.125C239.489,767.079 246.127,766.04 253.413,764.999C259.215,764.17 264.59,761.482 268.734,757.338C275.102,750.97 282.07,740.176 288.438,724.256C293.395,711.863 297.646,699.116 301.187,686.014C304.559,673.539 307.423,662.074 309.783,651.622C312.773,638.378 313.875,629.98 313.875,626.563L313.875,588.491C315.25,585.763 316.504,582.678 317.573,579.204C319.287,573.634 320.579,567.85 321.436,561.851C321.459,561.694 321.48,561.537 321.499,561.38C321.887,558.276 322.18,555.171 322.375,552.067ZM371.005,783.332L371.091,783.214C371.151,783.141 371.274,783.231 371.354,783.198L371.005,783.332ZM279.292,430.187L279.292,448.257C277.796,453.141 276.302,457.825 274.806,462.31C274.587,462.968 274.393,463.634 274.225,464.306C272.788,470.054 271.531,475.802 270.453,481.551C269.06,488.983 268.521,494.576 268.521,498.292L268.521,542.354C268.521,546.372 268.274,550.39 267.782,554.408C267.332,557.483 266.676,560.433 265.802,563.275L265.703,563.555C261.84,568.344 259.708,574.333 259.708,580.542L259.708,625.745C259.517,626.848 258.328,633.571 256.946,639.691C254.737,649.474 252.052,660.204 248.896,671.882C245.91,682.933 242.327,693.686 238.145,704.139C236.77,707.579 235.544,710.589 234.319,713.087C229.289,713.878 224.602,714.668 220.259,715.458C220.104,715.486 219.948,715.516 219.793,715.547C214.079,716.69 208.652,717.553 203.509,718.124C199.126,718.611 196.211,718.938 194.75,718.938C194.75,718.938 175.167,718.938 175.167,718.938C172.238,718.938 166.328,719.588 157.541,721.541C149.489,723.33 141.188,726.393 132.688,730.867C124.05,735.413 116.325,741.102 109.505,747.922C100.216,757.212 95.287,767.973 94.382,780.062C86.891,737.94 98.318,684.941 117.975,651.595C145.097,605.586 208.655,519.554 279.292,430.187ZM177.046,773.104L175.784,773.693C175.597,773.786 175.384,773.771 175.167,773.771L172.446,773.771L174.009,773.472L176.079,773.104L177.046,773.104ZM740.074,538.242C740.763,540.223 741.531,542.039 742.359,543.695C743.945,546.867 745.276,549.77 746.333,552.413C747.266,554.745 748.518,556.934 750.053,558.917C750.18,561.051 750.249,563.294 750.267,565.645C750.267,565.652 747.445,596.694 747.445,596.694C747.37,597.509 747.333,598.327 747.333,599.146C747.333,610.896 749.009,622.437 752.366,633.767C753.938,639.074 755.167,642.808 755.167,645.167C755.167,648.834 755.912,652.464 757.356,655.835L766.917,678.142C766.917,678.142 766.917,700 766.917,700C766.917,710.775 769.218,720.108 773.894,727.946C760.227,741.649 746.198,755.133 732.035,768.088L730.349,767.966C729.699,767.919 729.047,767.896 728.396,767.896L682.375,767.896C680.067,767.896 674.677,768.217 666.215,768.986C659.125,769.631 651.553,770.275 643.496,770.92C635.233,771.581 627.466,772.242 620.194,772.903C615.642,773.317 612.37,773.609 610.374,773.717C611.171,771.088 612.239,768.371 613.52,765.551C614.016,764.461 615.384,765.271 616.771,765.271L673.563,765.271C685.965,765.271 696.001,760.905 703.974,752.932C710.486,746.419 714.917,738.508 717.088,729.1C718.375,723.52 719.231,717.939 719.66,712.358C720.052,707.259 720.229,703.138 720.229,700C720.229,689.312 718.184,676.531 713.662,661.732C711.214,653.72 709.458,648.282 709.458,645.167L709.458,553.125C709.458,552.004 709.404,550.63 709.287,549.004C719.64,545.217 729.929,541.622 740.074,538.242ZM460.516,476.947C466.513,498.074 472.298,517.391 477.869,534.899C484.937,557.115 491.176,575.118 496.561,588.919C503.594,606.939 511.523,616.592 516.446,620.195C522.705,624.778 528.932,626.229 534.521,626.229C539.909,626.229 545.032,624.633 549.341,621.8C544.196,626.862 539.641,632.89 535.759,639.948C531.559,647.585 527.933,655.413 524.878,663.431C521.988,671.019 519.46,678.607 517.292,686.195C515.889,691.106 514.515,695.303 513.118,698.77C508.691,706.435 504.407,713.188 500.243,719.019L488.23,735.837L487.214,734.06C487.215,734.061 480.103,679.832 480.103,679.832C479.821,677.677 479.28,675.564 478.492,673.538C473.698,661.212 468.223,648.542 462.06,635.531C456.476,623.744 451.358,611.802 446.705,599.705C442.177,587.931 438.398,576.309 435.379,564.837C432.753,554.856 431.375,545.409 431.375,536.479C431.375,536.479 431.375,525.708 431.375,525.708C431.375,522.887 430.904,518.714 429.64,513.255C438.881,500.685 449.257,488.574 460.516,476.947ZM792.236,522.392C870.499,501.048 930.705,496.501 931.916,519.435C932.991,539.785 885.55,606.983 821.083,678.254L821.083,672.583C821.083,668.916 820.338,665.286 818.894,661.915L808.827,638.426C808.142,633.243 806.72,626.543 804.301,618.379C802.544,612.449 801.611,606.416 801.509,600.279C801.509,600.272 804.326,569.285 804.326,569.285C804.4,568.47 804.438,567.652 804.438,566.833C804.438,561.456 804.238,556.464 803.854,551.855C803.219,544.227 800.571,536.399 795.133,528.716C794.262,526.702 793.298,524.592 792.236,522.392ZM753.544,308.022C749.442,313.194 746.043,319.073 743.395,325.692C739.7,334.931 737.538,345.077 737.076,356.164C736.732,364.407 736.563,371.964 736.563,378.833L736.563,399.041C714.354,421.044 690.194,445.534 666.818,471.45C665.436,471.282 664.089,471.208 662.792,471.208C658.883,471.208 653.804,471.937 648.136,475.26C645.17,476.998 639.601,481.472 632.955,490.163C628.311,496.235 622.935,504.081 616.862,513.726C611.335,522.505 605.156,532.26 598.328,542.991C591.993,552.946 585.931,562.765 580.149,572.452C589.225,543.403 600.985,513.345 615.394,482.267C632.255,445.899 647.296,411.183 660.521,378.121C661.801,374.922 662.458,371.508 662.458,368.063C662.458,360.896 664.431,354.614 668.697,349.325C672.241,344.93 675.875,340.215 679.595,335.181C706.568,323.713 731.852,314.599 753.544,308.022ZM749.885,556.492L749.875,556.353C749.879,556.399 749.882,556.445 749.885,556.492L750.004,558.144C749.951,557.837 749.93,557.528 749.917,557.227C749.906,556.975 749.9,556.728 749.885,556.492ZM402.992,279.212C405.347,286.418 407.757,294.039 410.221,302.076C417.68,326.398 425.301,352.179 433.084,379.42C437.105,393.492 441.082,407.522 445.016,421.506C436.061,450.063 429.379,477.579 426.552,502.374C424.49,496.042 422.127,489.708 419.461,483.376C416,475.155 412.053,468.045 407.726,461.987C397.255,447.328 385.252,443.792 376.875,443.792C370.421,443.792 356.123,447.172 345.367,466.535C341.522,473.454 337.841,481.514 334.381,490.74C331.053,499.615 328.279,508.675 326.06,517.919C324.22,525.586 323.154,531.883 322.687,536.783L322.687,498.292C322.687,496.785 323.127,494.546 323.692,491.533C324.512,487.162 325.459,482.791 326.533,478.42C328.461,472.598 330.389,466.477 332.316,460.053C333.074,457.528 333.458,454.907 333.458,452.271L333.458,429.249C333.458,429.249 335.764,422.333 335.764,422.333C337.589,417.601 339.005,412.42 339.944,406.786C340.825,401.499 341.292,395.773 341.292,389.604C341.292,389.604 341.292,368.063 341.292,368.063C341.292,365.869 340.805,361.635 339.392,355.451C360.95,329.1 382.409,303.364 402.992,279.212ZM604.853,371.287C593.306,399.487 580.439,428.884 566.252,459.483C554.13,485.629 543.771,511.111 535.163,535.926C533.337,530.456 531.446,524.638 529.485,518.476C522.723,497.223 515.641,473.233 508.235,446.507C507.305,443.15 506.372,439.791 505.436,436.426C536.382,411.754 570.616,389.937 604.853,371.287ZM443.977,231.932C494.635,174.611 535.225,133.349 551.017,126.557C584.009,112.365 524.663,218.711 476.728,335.354C471.753,318.361 466.847,301.975 462.008,286.195C455.661,265.498 449.647,247.411 443.977,231.932Z" style="fill:rgb(103,182,50);"/>
        </g>
        <g transform="matrix(1.10962,0,0,1.10962,-392.88,70.7959)">
            <path d="M1134.69,97.992C1156.89,97.992 1171.58,104.194 1178.76,116.596C1185.94,128.999 1189.53,142.055 1189.53,155.763C1189.53,157.721 1188.06,160.659 1185.12,164.575C1182.18,168.492 1178.59,172.409 1174.35,176.325C1170.11,180.242 1165.87,183.669 1161.62,186.607C1157.38,189.544 1153.95,191.013 1151.34,191.013L1134.69,191.013C1130.12,191.013 1126.21,191.339 1122.94,191.992C1114.46,193.298 1108.58,195.582 1105.32,198.846C1095.53,198.846 1088.18,200.968 1083.29,205.211C1078.39,209.454 1074.64,214.839 1072.03,221.367C1069.42,227.895 1067.95,235.075 1067.62,242.909C1067.3,250.742 1067.13,257.923 1067.13,264.45L1067.13,400.555C1067.13,407.735 1068.11,413.284 1070.07,417.2C1072.03,421.117 1073.66,424.707 1074.96,427.971C1078.23,431.888 1080.02,435.805 1080.35,439.721C1080.68,443.638 1080.84,447.881 1080.84,452.45L1077.9,484.763C1077.9,493.902 1079.21,502.878 1081.82,511.69C1084.43,520.503 1085.74,526.867 1085.74,530.784L1097.49,558.2L1097.49,585.617C1097.49,597.367 1103.2,605.527 1114.62,610.096C1126.05,614.666 1138.45,618.419 1151.83,621.357C1165.21,624.294 1177.62,627.558 1189.04,631.148C1200.46,634.739 1206.17,641.43 1206.17,651.221C1206.17,670.805 1197.04,680.596 1178.76,680.596L1143.51,680.596C1138.94,680.596 1134.04,680.759 1128.82,681.086C1123.6,681.412 1118.38,683.207 1113.15,686.471L1031.88,680.596L985.861,680.596C983.903,680.596 979.333,680.923 972.153,681.575C964.972,682.228 957.302,682.881 949.142,683.534C940.983,684.187 933.312,684.839 926.132,685.492C918.951,686.145 914.382,686.471 912.424,686.471C902.632,686.471 895.615,685.819 891.371,684.513C887.128,683.207 885.007,678.312 885.007,669.825C885.007,660.687 887.455,650.732 892.351,639.961C897.246,629.19 906.549,623.805 920.257,623.805L977.049,623.805C981.618,623.805 985.371,622.336 988.309,619.398C991.246,616.461 993.205,612.871 994.184,608.628C995.163,604.384 995.816,600.141 996.142,595.898C996.469,591.655 996.632,588.228 996.632,585.617C996.632,577.131 994.837,567.013 991.246,555.263C987.656,543.513 985.861,535.353 985.861,530.784L985.861,438.742C985.861,436.131 985.371,431.725 984.392,425.523C983.413,419.322 981.944,413.121 979.986,406.919C978.028,400.718 975.906,395.332 973.621,390.763C971.337,386.194 968.889,383.909 966.278,383.909C964.972,383.909 962.198,386.683 957.955,392.232C953.712,397.78 948.816,404.961 943.267,413.773C937.719,422.586 931.517,432.378 924.663,443.148C917.809,453.919 911.281,464.527 905.08,474.971C898.878,485.416 893.167,494.881 887.944,503.367C882.722,511.853 878.805,518.381 876.194,522.95C870.972,526.867 866.566,532.089 862.976,538.617C859.385,545.145 856.285,551.836 853.674,558.69C851.062,565.544 848.778,572.398 846.819,579.253C844.861,586.107 842.903,591.819 840.944,596.388C835.722,605.527 830.663,613.523 825.767,620.378C820.871,627.232 816.792,632.944 813.528,637.513C808.305,648.61 804.715,654.975 802.757,656.607C800.799,658.239 797.208,659.055 791.986,659.055C784.153,659.055 779.094,656.444 776.809,651.221C774.524,645.999 770.444,638.492 764.569,628.7L756.736,568.971C752.167,557.221 746.944,545.145 741.069,532.742C735.194,520.339 729.809,507.773 724.913,495.044C720.017,482.315 715.937,469.749 712.674,457.346C709.41,444.944 707.778,433.194 707.778,422.096L707.778,411.325C707.778,408.714 706.799,404.308 704.84,398.107C702.882,391.905 700.597,385.704 697.986,379.503C695.375,373.301 692.437,367.916 689.174,363.346C685.91,358.777 682.972,356.492 680.361,356.492C678.403,356.492 675.792,359.43 672.528,365.305C669.264,371.18 666.163,378.034 663.226,385.867C660.288,393.7 657.84,401.697 655.882,409.857C653.924,418.016 652.944,424.055 652.944,427.971L652.944,495.534C650.333,512.506 647.722,527.846 645.111,541.555C643.153,553.305 641.358,564.728 639.726,575.825C638.094,586.923 637.278,593.777 637.278,596.388C637.278,614.666 640.542,627.069 647.069,633.596C653.597,640.124 660.778,644.367 668.611,646.325C676.444,648.284 683.625,650.242 690.153,652.2C696.68,654.159 699.944,660.034 699.944,669.825C699.944,677.006 698.476,682.391 695.538,685.982C692.601,689.572 689.174,692.183 685.257,693.815C681.34,695.447 677.424,696.426 673.507,696.753C669.59,697.079 666.653,697.242 664.694,697.242L626.507,697.242L533.486,680.596L498.236,680.596C496.278,681.902 493.993,682.881 491.382,683.534C487.465,685.492 483.222,686.471 478.653,686.471L460.049,686.471C458.09,686.471 455.153,686.145 451.236,685.492C447.319,684.839 443.403,683.697 439.486,682.065C435.569,680.433 432.142,678.638 429.205,676.68C426.267,674.721 424.799,672.437 424.799,669.825C424.799,663.298 427.246,657.586 432.142,652.69C437.038,647.794 442.587,643.714 448.788,640.45C454.99,637.187 461.028,634.902 466.903,633.596C472.778,632.291 476.694,631.638 478.653,631.638L498.236,631.638C500.194,631.638 504.111,631.312 509.986,630.659C515.861,630.006 522.062,629.027 528.59,627.721C535.771,626.416 543.93,625.11 553.069,623.805C557.639,619.235 562.208,611.239 566.778,599.815C571.347,588.391 575.264,576.641 578.528,564.565C581.792,552.489 584.566,541.391 586.851,531.273C589.135,521.155 590.278,514.791 590.278,512.18L590.278,466.159C592.236,464.2 593.868,461.1 595.174,456.857C596.479,452.614 597.458,448.207 598.111,443.638C598.764,438.416 599.09,433.194 599.09,427.971L599.09,383.909C599.09,381.298 599.58,377.381 600.559,372.159C601.538,366.937 602.68,361.714 603.986,356.492C605.944,350.617 607.903,344.416 609.861,337.888L609.861,310.471C611.167,306.555 612.472,302.638 613.778,298.721C615.083,295.457 616.062,291.867 616.715,287.95C617.368,284.034 617.694,279.791 617.694,275.221L617.694,253.68C617.694,251.721 616.715,247.315 614.757,240.461C612.799,233.607 610.514,226.589 607.903,219.409C605.292,210.923 602.354,201.457 599.09,191.013C595.826,186.444 591.257,182.2 585.382,178.284C579.507,174.367 573.958,170.45 568.736,166.534C564.819,163.27 560.087,160.169 554.538,157.232C548.99,154.294 544.583,149.888 541.319,144.013L541.319,133.242C541.319,129.325 542.951,126.388 546.215,124.43C549.479,122.471 553.396,120.839 557.965,119.534C562.535,118.228 568.083,117.575 574.611,117.575L599.09,117.575C605.618,117.575 610.351,117.086 613.288,116.107C616.226,115.128 618.347,113.822 619.653,112.19C620.958,110.558 621.937,109.253 622.59,108.273C623.243,107.294 624.549,106.805 626.507,106.805L691.132,106.805L718.549,117.575C725.076,134.548 732.094,155.273 739.601,179.753C747.108,204.232 754.778,230.18 762.611,257.596C770.444,285.013 778.115,312.266 785.621,339.357C793.128,366.447 800.309,390.763 807.163,412.305C814.017,433.846 820.055,451.308 825.278,464.69C830.5,478.072 834.743,484.763 838.007,484.763C839.312,481.499 840.944,478.562 842.903,475.95C844.208,473.339 846.003,470.565 848.288,467.628C850.573,464.69 852.694,462.242 854.653,460.284C864.444,426.992 877.663,392.395 894.309,356.492C910.955,320.589 925.805,286.319 938.861,253.68C938.861,239.971 942.941,228.058 951.101,217.94C959.26,207.822 967.91,195.909 977.049,182.2C979.007,177.631 980.312,171.593 980.965,164.086C981.618,156.579 982.76,149.072 984.392,141.565C986.024,134.058 988.799,127.041 992.715,120.513C996.632,113.985 1003.16,109.416 1012.3,106.805L1050.49,106.805L1064.19,114.638C1073.33,114.638 1081.82,113.822 1089.65,112.19C1097.49,110.558 1104.99,108.763 1112.17,106.805C1119.35,104.194 1126.86,101.256 1134.69,97.992Z" style="fill-rule:nonzero;"/>
        </g>
    </g>
</svg>
